<?xml version="1.0" encoding="UTF-8" standalone="no"?>
<!DOCTYPE svg PUBLIC "-//W3C//DTD SVG 1.1//EN"
 "http://www.w3.org/Graphics/SVG/1.1/DTD/svg11.dtd">
<!-- Generated by graphviz version 2.38.0 (20140413.2041)
 -->
<!-- Title: include/gelfcpp/detail/DocumentAccessor.hpp Pages: 1 -->
<svg width="252pt" height="173pt"
 viewBox="0.00 0.00 251.50 173.00" xmlns="http://www.w3.org/2000/svg" xmlns:xlink="http://www.w3.org/1999/xlink">
<g id="graph0" class="graph" transform="scale(1 1) rotate(0) translate(4 169)">
<title>include/gelfcpp/detail/DocumentAccessor.hpp</title>
<polygon fill="white" stroke="none" points="-4,4 -4,-169 247.5,-169 247.5,4 -4,4"/>
<!-- Node1 -->
<g id="node1" class="node"><title>Node1</title>
<polygon fill="#bfbfbf" stroke="black" points="59,-134.5 59,-164.5 184,-164.5 184,-134.5 59,-134.5"/>
<text text-anchor="start" x="67" y="-152.5" font-family="Helvetica,sans-Serif" font-size="10.00">include/gelfcpp/detail</text>
<text text-anchor="middle" x="121.5" y="-141.5" font-family="Helvetica,sans-Serif" font-size="10.00">/DocumentAccessor.hpp</text>
</g>
<!-- Node2 -->
<g id="node2" class="node"><title>Node2</title>
<g id="a_node2"><a xlink:href="_gelf_j_s_o_n_output_8hpp.html" target="_top" xlink:title="include/gelfcpp/output\l/GelfJSONOutput.hpp">
<polygon fill="white" stroke="black" points="0,-67.5 0,-97.5 113,-97.5 113,-67.5 0,-67.5"/>
<text text-anchor="start" x="8" y="-85.5" font-family="Helvetica,sans-Serif" font-size="10.00">include/gelfcpp/output</text>
<text text-anchor="middle" x="56.5" y="-74.5" font-family="Helvetica,sans-Serif" font-size="10.00">/GelfJSONOutput.hpp</text>
</a>
</g>
</g>
<!-- Node1&#45;&gt;Node2 -->
<g id="edge1" class="edge"><title>Node1&#45;&gt;Node2</title>
<path fill="none" stroke="midnightblue" d="M100.311,-127.311C90.5612,-117.561 79.259,-106.259 70.5765,-97.5765"/>
<polygon fill="midnightblue" stroke="midnightblue" points="97.85,-129.8 107.396,-134.396 102.8,-124.85 97.85,-129.8"/>
</g>
<!-- Node3 -->
<g id="node3" class="node"><title>Node3</title>
<g id="a_node3"><a xlink:href="_gelf_serializer_8hpp.html" target="_top" xlink:title="include/gelfcpp/output\l/GelfSerializer.hpp">
<polygon fill="white" stroke="black" points="131.5,-67.5 131.5,-97.5 243.5,-97.5 243.5,-67.5 131.5,-67.5"/>
<text text-anchor="start" x="139.5" y="-85.5" font-family="Helvetica,sans-Serif" font-size="10.00">include/gelfcpp/output</text>
<text text-anchor="middle" x="187.5" y="-74.5" font-family="Helvetica,sans-Serif" font-size="10.00">/GelfSerializer.hpp</text>
</a>
</g>
</g>
<!-- Node1&#45;&gt;Node3 -->
<g id="edge2" class="edge"><title>Node1&#45;&gt;Node3</title>
<path fill="none" stroke="midnightblue" d="M143.015,-127.311C152.915,-117.561 164.391,-106.259 173.207,-97.5765"/>
<polygon fill="midnightblue" stroke="midnightblue" points="140.49,-124.885 135.821,-134.396 145.402,-129.873 140.49,-124.885"/>
</g>
<!-- Node4 -->
<g id="node4" class="node"><title>Node4</title>
<g id="a_node4"><a xlink:href="_gelf_u_d_p_output_8hpp.html" target="_top" xlink:title="include/gelfcpp/output\l/GelfUDPOutput.hpp">
<polygon fill="white" stroke="black" points="131.5,-0.5 131.5,-30.5 243.5,-30.5 243.5,-0.5 131.5,-0.5"/>
<text text-anchor="start" x="139.5" y="-18.5" font-family="Helvetica,sans-Serif" font-size="10.00">include/gelfcpp/output</text>
<text text-anchor="middle" x="187.5" y="-7.5" font-family="Helvetica,sans-Serif" font-size="10.00">/GelfUDPOutput.hpp</text>
</a>
</g>
</g>
<!-- Node3&#45;&gt;Node4 -->
<g id="edge3" class="edge"><title>Node3&#45;&gt;Node4</title>
<path fill="none" stroke="midnightblue" d="M187.5,-57.1081C187.5,-48.1539 187.5,-38.3227 187.5,-30.5765"/>
<polygon fill="midnightblue" stroke="midnightblue" points="184,-57.3959 187.5,-67.396 191,-57.396 184,-57.3959"/>
</g>
</g>
</svg>
