<?xml version="1.0" encoding="UTF-8" standalone="no"?>
<!DOCTYPE svg PUBLIC "-//W3C//DTD SVG 1.1//EN"
 "http://www.w3.org/Graphics/SVG/1.1/DTD/svg11.dtd">
<!-- Generated by graphviz version 2.38.0 (20140413.2041)
 -->
<!-- Title: include/gelfcpp/GelfMessageStream.hpp Pages: 1 -->
<svg width="515pt" height="207pt"
 viewBox="0.00 0.00 515.00 207.00" xmlns="http://www.w3.org/2000/svg" xmlns:xlink="http://www.w3.org/1999/xlink">
<g id="graph0" class="graph" transform="scale(1 1) rotate(0) translate(4 203)">
<title>include/gelfcpp/GelfMessageStream.hpp</title>
<polygon fill="white" stroke="none" points="-4,4 -4,-203 511,-203 511,4 -4,4"/>
<!-- Node1 -->
<g id="node1" class="node"><title>Node1</title>
<polygon fill="#bfbfbf" stroke="black" points="347.5,-168.5 347.5,-198.5 490.5,-198.5 490.5,-168.5 347.5,-168.5"/>
<text text-anchor="start" x="355.5" y="-186.5" font-family="Helvetica,sans-Serif" font-size="10.00">include/gelfcpp/GelfMessage</text>
<text text-anchor="middle" x="419" y="-175.5" font-family="Helvetica,sans-Serif" font-size="10.00">Stream.hpp</text>
</g>
<!-- Node2 -->
<g id="node2" class="node"><title>Node2</title>
<g id="a_node2"><a xlink:href="_gelf_message_builder_8hpp.html" target="_top" xlink:title="gelfcpp/GelfMessageBuilder.hpp">
<polygon fill="white" stroke="black" points="279,-112.5 279,-131.5 437,-131.5 437,-112.5 279,-112.5"/>
<text text-anchor="middle" x="358" y="-119.5" font-family="Helvetica,sans-Serif" font-size="10.00">gelfcpp/GelfMessageBuilder.hpp</text>
</a>
</g>
</g>
<!-- Node1&#45;&gt;Node2 -->
<g id="edge1" class="edge"><title>Node1&#45;&gt;Node2</title>
<path fill="none" stroke="midnightblue" d="M404.544,-168.399C395.406,-159.486 383.581,-147.952 374.138,-138.741"/>
<polygon fill="midnightblue" stroke="midnightblue" points="376.478,-136.135 366.876,-131.658 371.591,-141.146 376.478,-136.135"/>
</g>
<!-- Node11 -->
<g id="node11" class="node"><title>Node11</title>
<polygon fill="white" stroke="#bfbfbf" points="455,-112.5 455,-131.5 507,-131.5 507,-112.5 455,-112.5"/>
<text text-anchor="middle" x="481" y="-119.5" font-family="Helvetica,sans-Serif" font-size="10.00">memory</text>
</g>
<!-- Node1&#45;&gt;Node11 -->
<g id="edge10" class="edge"><title>Node1&#45;&gt;Node11</title>
<path fill="none" stroke="midnightblue" d="M433.693,-168.399C442.981,-159.486 454.999,-147.952 464.598,-138.741"/>
<polygon fill="midnightblue" stroke="midnightblue" points="467.187,-141.107 471.978,-131.658 462.34,-136.057 467.187,-141.107"/>
</g>
<!-- Node3 -->
<g id="node3" class="node"><title>Node3</title>
<g id="a_node3"><a xlink:href="_gelf_message_8hpp.html" target="_top" xlink:title="gelfcpp/GelfMessage.hpp">
<polygon fill="white" stroke="black" points="181,-56.5 181,-75.5 309,-75.5 309,-56.5 181,-56.5"/>
<text text-anchor="middle" x="245" y="-63.5" font-family="Helvetica,sans-Serif" font-size="10.00">gelfcpp/GelfMessage.hpp</text>
</a>
</g>
</g>
<!-- Node2&#45;&gt;Node3 -->
<g id="edge2" class="edge"><title>Node2&#45;&gt;Node3</title>
<path fill="none" stroke="midnightblue" d="M340.095,-112.444C321.746,-103.675 292.995,-89.9355 271.906,-79.8579"/>
<polygon fill="midnightblue" stroke="midnightblue" points="273.353,-76.6703 262.821,-75.5164 270.335,-82.9862 273.353,-76.6703"/>
</g>
<!-- Node9 -->
<g id="node9" class="node"><title>Node9</title>
<polygon fill="white" stroke="#bfbfbf" points="327,-56.5 327,-75.5 389,-75.5 389,-56.5 327,-56.5"/>
<text text-anchor="middle" x="358" y="-63.5" font-family="Helvetica,sans-Serif" font-size="10.00">type_traits</text>
</g>
<!-- Node2&#45;&gt;Node9 -->
<g id="edge8" class="edge"><title>Node2&#45;&gt;Node9</title>
<path fill="none" stroke="midnightblue" d="M358,-112.083C358,-105.006 358,-94.8611 358,-85.9865"/>
<polygon fill="midnightblue" stroke="midnightblue" points="361.5,-85.751 358,-75.7511 354.5,-85.7511 361.5,-85.751"/>
</g>
<!-- Node10 -->
<g id="node10" class="node"><title>Node10</title>
<polygon fill="white" stroke="#bfbfbf" points="407.5,-56.5 407.5,-75.5 466.5,-75.5 466.5,-56.5 407.5,-56.5"/>
<text text-anchor="middle" x="437" y="-63.5" font-family="Helvetica,sans-Serif" font-size="10.00">functional</text>
</g>
<!-- Node2&#45;&gt;Node10 -->
<g id="edge9" class="edge"><title>Node2&#45;&gt;Node10</title>
<path fill="none" stroke="midnightblue" d="M370.693,-112.324C382.901,-103.979 401.578,-91.2122 416.003,-81.3524"/>
<polygon fill="midnightblue" stroke="midnightblue" points="418.058,-84.1871 424.339,-75.6545 414.108,-78.4082 418.058,-84.1871"/>
</g>
<!-- Node4 -->
<g id="node4" class="node"><title>Node4</title>
<polygon fill="white" stroke="#bfbfbf" points="0,-0.5 0,-19.5 110,-19.5 110,-0.5 0,-0.5"/>
<text text-anchor="middle" x="55" y="-7.5" font-family="Helvetica,sans-Serif" font-size="10.00">rapidjson/document.h</text>
</g>
<!-- Node3&#45;&gt;Node4 -->
<g id="edge3" class="edge"><title>Node3&#45;&gt;Node4</title>
<path fill="none" stroke="midnightblue" d="M214.894,-56.4435C182.374,-47.2011 130.421,-32.4356 94.6087,-22.2572"/>
<polygon fill="midnightblue" stroke="midnightblue" points="95.5411,-18.8837 84.9652,-19.5164 93.6274,-25.617 95.5411,-18.8837"/>
</g>
<!-- Node5 -->
<g id="node5" class="node"><title>Node5</title>
<polygon fill="white" stroke="#bfbfbf" points="128,-0.5 128,-19.5 206,-19.5 206,-0.5 128,-0.5"/>
<text text-anchor="middle" x="167" y="-7.5" font-family="Helvetica,sans-Serif" font-size="10.00">unordered_set</text>
</g>
<!-- Node3&#45;&gt;Node5 -->
<g id="edge4" class="edge"><title>Node3&#45;&gt;Node5</title>
<path fill="none" stroke="midnightblue" d="M232.468,-56.324C220.414,-47.979 201.973,-35.2122 187.731,-25.3524"/>
<polygon fill="midnightblue" stroke="midnightblue" points="189.715,-22.469 179.501,-19.6545 185.731,-28.2243 189.715,-22.469"/>
</g>
<!-- Node6 -->
<g id="node6" class="node"><title>Node6</title>
<polygon fill="white" stroke="#bfbfbf" points="224.5,-0.5 224.5,-19.5 265.5,-19.5 265.5,-0.5 224.5,-0.5"/>
<text text-anchor="middle" x="245" y="-7.5" font-family="Helvetica,sans-Serif" font-size="10.00">string</text>
</g>
<!-- Node3&#45;&gt;Node6 -->
<g id="edge5" class="edge"><title>Node3&#45;&gt;Node6</title>
<path fill="none" stroke="midnightblue" d="M245,-56.083C245,-49.0059 245,-38.8611 245,-29.9865"/>
<polygon fill="midnightblue" stroke="midnightblue" points="248.5,-29.751 245,-19.7511 241.5,-29.7511 248.5,-29.751"/>
</g>
<!-- Node7 -->
<g id="node7" class="node"><title>Node7</title>
<polygon fill="white" stroke="#bfbfbf" points="284,-0.5 284,-19.5 330,-19.5 330,-0.5 284,-0.5"/>
<text text-anchor="middle" x="307" y="-7.5" font-family="Helvetica,sans-Serif" font-size="10.00">chrono</text>
</g>
<!-- Node3&#45;&gt;Node7 -->
<g id="edge6" class="edge"><title>Node3&#45;&gt;Node7</title>
<path fill="none" stroke="midnightblue" d="M254.961,-56.324C264.127,-48.3414 277.937,-36.3128 289.028,-26.6529"/>
<polygon fill="midnightblue" stroke="midnightblue" points="291.615,-29.041 296.857,-19.8339 287.018,-23.7624 291.615,-29.041"/>
</g>
<!-- Node8 -->
<g id="node8" class="node"><title>Node8</title>
<polygon fill="white" stroke="#bfbfbf" points="348.5,-0.5 348.5,-19.5 453.5,-19.5 453.5,-0.5 348.5,-0.5"/>
<text text-anchor="middle" x="401" y="-7.5" font-family="Helvetica,sans-Serif" font-size="10.00">bits/unordered_set.h</text>
</g>
<!-- Node3&#45;&gt;Node8 -->
<g id="edge7" class="edge"><title>Node3&#45;&gt;Node8</title>
<path fill="none" stroke="midnightblue" d="M269.719,-56.4435C295.848,-47.3986 337.259,-33.064 366.576,-22.9158"/>
<polygon fill="midnightblue" stroke="midnightblue" points="368.092,-26.0951 376.397,-19.5164 365.802,-19.4801 368.092,-26.0951"/>
</g>
</g>
</svg>
