<?xml version="1.0" encoding="UTF-8" standalone="no"?>
<!DOCTYPE svg PUBLIC "-//W3C//DTD SVG 1.1//EN"
 "http://www.w3.org/Graphics/SVG/1.1/DTD/svg11.dtd">
<!-- Generated by graphviz version 2.38.0 (20140413.2041)
 -->
<!-- Title: include/gelfcpp/output/GelfJSONOutput.hpp Pages: 1 -->
<svg width="648pt" height="207pt"
 viewBox="0.00 0.00 647.50 207.00" xmlns="http://www.w3.org/2000/svg" xmlns:xlink="http://www.w3.org/1999/xlink">
<g id="graph0" class="graph" transform="scale(1 1) rotate(0) translate(4 203)">
<title>include/gelfcpp/output/GelfJSONOutput.hpp</title>
<polygon fill="white" stroke="none" points="-4,4 -4,-203 643.5,-203 643.5,4 -4,4"/>
<!-- Node1 -->
<g id="node1" class="node"><title>Node1</title>
<polygon fill="#bfbfbf" stroke="black" points="331.5,-168.5 331.5,-198.5 444.5,-198.5 444.5,-168.5 331.5,-168.5"/>
<text text-anchor="start" x="339.5" y="-186.5" font-family="Helvetica,sans-Serif" font-size="10.00">include/gelfcpp/output</text>
<text text-anchor="middle" x="388" y="-175.5" font-family="Helvetica,sans-Serif" font-size="10.00">/GelfJSONOutput.hpp</text>
</g>
<!-- Node2 -->
<g id="node2" class="node"><title>Node2</title>
<g id="a_node2"><a xlink:href="_gelf_message_8hpp.html" target="_top" xlink:title="gelfcpp/GelfMessage.hpp">
<polygon fill="white" stroke="black" points="181,-56.5 181,-75.5 309,-75.5 309,-56.5 181,-56.5"/>
<text text-anchor="middle" x="245" y="-63.5" font-family="Helvetica,sans-Serif" font-size="10.00">gelfcpp/GelfMessage.hpp</text>
</a>
</g>
</g>
<!-- Node1&#45;&gt;Node2 -->
<g id="edge1" class="edge"><title>Node1&#45;&gt;Node2</title>
<path fill="none" stroke="midnightblue" d="M331.317,-174.454C283.475,-166.365 220.374,-152.191 205,-132 192.628,-115.751 209.654,-95.5059 225.163,-81.9668"/>
<polygon fill="midnightblue" stroke="midnightblue" points="227.464,-84.606 232.971,-75.5548 223.022,-79.1963 227.464,-84.606"/>
</g>
<!-- Node8 -->
<g id="node8" class="node"><title>Node8</title>
<g id="a_node8"><a xlink:href="_document_accessor_8hpp.html" target="_top" xlink:title="gelfcpp/detail/DocumentAccessor.hpp">
<polygon fill="white" stroke="black" points="214,-112.5 214,-131.5 396,-131.5 396,-112.5 214,-112.5"/>
<text text-anchor="middle" x="305" y="-119.5" font-family="Helvetica,sans-Serif" font-size="10.00">gelfcpp/detail/DocumentAccessor.hpp</text>
</a>
</g>
</g>
<!-- Node1&#45;&gt;Node8 -->
<g id="edge7" class="edge"><title>Node1&#45;&gt;Node8</title>
<path fill="none" stroke="midnightblue" d="M368.33,-168.399C355.399,-159.129 338.514,-147.025 325.432,-137.647"/>
<polygon fill="midnightblue" stroke="midnightblue" points="327.244,-134.639 317.077,-131.658 323.165,-140.329 327.244,-134.639"/>
</g>
<!-- Node9 -->
<g id="node9" class="node"><title>Node9</title>
<polygon fill="white" stroke="#bfbfbf" points="414,-112.5 414,-131.5 530,-131.5 530,-112.5 414,-112.5"/>
<text text-anchor="middle" x="472" y="-119.5" font-family="Helvetica,sans-Serif" font-size="10.00">rapidjson/stringbuffer.h</text>
</g>
<!-- Node1&#45;&gt;Node9 -->
<g id="edge9" class="edge"><title>Node1&#45;&gt;Node9</title>
<path fill="none" stroke="midnightblue" d="M407.907,-168.399C420.994,-159.129 438.082,-147.025 451.322,-137.647"/>
<polygon fill="midnightblue" stroke="midnightblue" points="453.64,-140.294 459.777,-131.658 449.594,-134.582 453.64,-140.294"/>
</g>
<!-- Node10 -->
<g id="node10" class="node"><title>Node10</title>
<polygon fill="white" stroke="#bfbfbf" points="548.5,-112.5 548.5,-131.5 639.5,-131.5 639.5,-112.5 548.5,-112.5"/>
<text text-anchor="middle" x="594" y="-119.5" font-family="Helvetica,sans-Serif" font-size="10.00">rapidjson/writer.h</text>
</g>
<!-- Node1&#45;&gt;Node10 -->
<g id="edge10" class="edge"><title>Node1&#45;&gt;Node10</title>
<path fill="none" stroke="midnightblue" d="M436.558,-168.475C472.563,-158.075 521.023,-144.078 554.628,-134.372"/>
<polygon fill="midnightblue" stroke="midnightblue" points="555.913,-137.644 564.549,-131.506 553.971,-130.919 555.913,-137.644"/>
</g>
<!-- Node3 -->
<g id="node3" class="node"><title>Node3</title>
<polygon fill="white" stroke="#bfbfbf" points="0,-0.5 0,-19.5 110,-19.5 110,-0.5 0,-0.5"/>
<text text-anchor="middle" x="55" y="-7.5" font-family="Helvetica,sans-Serif" font-size="10.00">rapidjson/document.h</text>
</g>
<!-- Node2&#45;&gt;Node3 -->
<g id="edge2" class="edge"><title>Node2&#45;&gt;Node3</title>
<path fill="none" stroke="midnightblue" d="M214.894,-56.4435C182.374,-47.2011 130.421,-32.4356 94.6087,-22.2572"/>
<polygon fill="midnightblue" stroke="midnightblue" points="95.5411,-18.8837 84.9652,-19.5164 93.6274,-25.617 95.5411,-18.8837"/>
</g>
<!-- Node4 -->
<g id="node4" class="node"><title>Node4</title>
<polygon fill="white" stroke="#bfbfbf" points="128,-0.5 128,-19.5 206,-19.5 206,-0.5 128,-0.5"/>
<text text-anchor="middle" x="167" y="-7.5" font-family="Helvetica,sans-Serif" font-size="10.00">unordered_set</text>
</g>
<!-- Node2&#45;&gt;Node4 -->
<g id="edge3" class="edge"><title>Node2&#45;&gt;Node4</title>
<path fill="none" stroke="midnightblue" d="M232.468,-56.324C220.414,-47.979 201.973,-35.2122 187.731,-25.3524"/>
<polygon fill="midnightblue" stroke="midnightblue" points="189.715,-22.469 179.501,-19.6545 185.731,-28.2243 189.715,-22.469"/>
</g>
<!-- Node5 -->
<g id="node5" class="node"><title>Node5</title>
<polygon fill="white" stroke="#bfbfbf" points="224.5,-0.5 224.5,-19.5 265.5,-19.5 265.5,-0.5 224.5,-0.5"/>
<text text-anchor="middle" x="245" y="-7.5" font-family="Helvetica,sans-Serif" font-size="10.00">string</text>
</g>
<!-- Node2&#45;&gt;Node5 -->
<g id="edge4" class="edge"><title>Node2&#45;&gt;Node5</title>
<path fill="none" stroke="midnightblue" d="M245,-56.083C245,-49.0059 245,-38.8611 245,-29.9865"/>
<polygon fill="midnightblue" stroke="midnightblue" points="248.5,-29.751 245,-19.7511 241.5,-29.7511 248.5,-29.751"/>
</g>
<!-- Node6 -->
<g id="node6" class="node"><title>Node6</title>
<polygon fill="white" stroke="#bfbfbf" points="284,-0.5 284,-19.5 330,-19.5 330,-0.5 284,-0.5"/>
<text text-anchor="middle" x="307" y="-7.5" font-family="Helvetica,sans-Serif" font-size="10.00">chrono</text>
</g>
<!-- Node2&#45;&gt;Node6 -->
<g id="edge5" class="edge"><title>Node2&#45;&gt;Node6</title>
<path fill="none" stroke="midnightblue" d="M254.961,-56.324C264.127,-48.3414 277.937,-36.3128 289.028,-26.6529"/>
<polygon fill="midnightblue" stroke="midnightblue" points="291.615,-29.041 296.857,-19.8339 287.018,-23.7624 291.615,-29.041"/>
</g>
<!-- Node7 -->
<g id="node7" class="node"><title>Node7</title>
<polygon fill="white" stroke="#bfbfbf" points="348.5,-0.5 348.5,-19.5 453.5,-19.5 453.5,-0.5 348.5,-0.5"/>
<text text-anchor="middle" x="401" y="-7.5" font-family="Helvetica,sans-Serif" font-size="10.00">bits/unordered_set.h</text>
</g>
<!-- Node2&#45;&gt;Node7 -->
<g id="edge6" class="edge"><title>Node2&#45;&gt;Node7</title>
<path fill="none" stroke="midnightblue" d="M269.719,-56.4435C295.848,-47.3986 337.259,-33.064 366.576,-22.9158"/>
<polygon fill="midnightblue" stroke="midnightblue" points="368.092,-26.0951 376.397,-19.5164 365.802,-19.4801 368.092,-26.0951"/>
</g>
<!-- Node8&#45;&gt;Node2 -->
<g id="edge8" class="edge"><title>Node8&#45;&gt;Node2</title>
<path fill="none" stroke="midnightblue" d="M295.36,-112.324C286.49,-104.341 273.125,-92.3128 262.392,-82.6529"/>
<polygon fill="midnightblue" stroke="midnightblue" points="264.59,-79.922 254.815,-75.8339 259.907,-85.1251 264.59,-79.922"/>
</g>
</g>
</svg>
