<?xml version="1.0" encoding="UTF-8" standalone="no"?>
<!DOCTYPE svg PUBLIC "-//W3C//DTD SVG 1.1//EN"
 "http://www.w3.org/Graphics/SVG/1.1/DTD/svg11.dtd">
<!-- Generated by graphviz version 2.38.0 (20140413.2041)
 -->
<!-- Title: include/gelfcpp/output/GelfUDPOutput.hpp Pages: 1 -->
<svg width="1451pt" height="274pt"
 viewBox="0.00 0.00 1451.18 274.00" xmlns="http://www.w3.org/2000/svg" xmlns:xlink="http://www.w3.org/1999/xlink">
<g id="graph0" class="graph" transform="scale(1 1) rotate(0) translate(4 270)">
<title>include/gelfcpp/output/GelfUDPOutput.hpp</title>
<polygon fill="white" stroke="none" points="-4,4 -4,-270 1447.18,-270 1447.18,4 -4,4"/>
<!-- Node1 -->
<g id="node1" class="node"><title>Node1</title>
<polygon fill="#bfbfbf" stroke="black" points="1185.18,-235.5 1185.18,-265.5 1297.18,-265.5 1297.18,-235.5 1185.18,-235.5"/>
<text text-anchor="start" x="1193.18" y="-253.5" font-family="Helvetica,sans-Serif" font-size="10.00">include/gelfcpp/output</text>
<text text-anchor="middle" x="1241.18" y="-242.5" font-family="Helvetica,sans-Serif" font-size="10.00">/GelfUDPOutput.hpp</text>
</g>
<!-- Node2 -->
<g id="node2" class="node"><title>Node2</title>
<g id="a_node2"><a xlink:href="_gelf_message_8hpp.html" target="_top" xlink:title="gelfcpp/GelfMessage.hpp">
<polygon fill="white" stroke="black" points="820.178,-56.5 820.178,-75.5 948.178,-75.5 948.178,-56.5 820.178,-56.5"/>
<text text-anchor="middle" x="884.178" y="-63.5" font-family="Helvetica,sans-Serif" font-size="10.00">gelfcpp/GelfMessage.hpp</text>
</a>
</g>
</g>
<!-- Node1&#45;&gt;Node2 -->
<g id="edge1" class="edge"><title>Node1&#45;&gt;Node2</title>
<path fill="none" stroke="midnightblue" d="M1241.69,-235.209C1241.84,-206.915 1237.8,-143.76 1201.18,-112 1165.9,-81.4114 1040.41,-71.5904 958.304,-68.453"/>
<polygon fill="midnightblue" stroke="midnightblue" points="958.385,-64.9537 948.266,-68.0943 958.134,-71.9492 958.385,-64.9537"/>
</g>
<!-- Node5 -->
<g id="node5" class="node"><title>Node5</title>
<polygon fill="white" stroke="#bfbfbf" points="307.678,-0.5 307.678,-19.5 348.678,-19.5 348.678,-0.5 307.678,-0.5"/>
<text text-anchor="middle" x="328.178" y="-7.5" font-family="Helvetica,sans-Serif" font-size="10.00">string</text>
</g>
<!-- Node1&#45;&gt;Node5 -->
<g id="edge21" class="edge"><title>Node1&#45;&gt;Node5</title>
<path fill="none" stroke="midnightblue" d="M1185.15,-248.988C955.659,-246.317 95.7642,-230.498 16.1778,-143 -68.1323,-50.3087 203.951,-20.4758 297.645,-13.0733"/>
<polygon fill="midnightblue" stroke="midnightblue" points="297.945,-16.5607 307.652,-12.3151 297.416,-9.58073 297.945,-16.5607"/>
</g>
<!-- Node8 -->
<g id="node8" class="node"><title>Node8</title>
<g id="a_node8"><a xlink:href="_gelf_serializer_8hpp.html" target="_top" xlink:title="gelfcpp/output/GelfSerializer.hpp">
<polygon fill="white" stroke="black" points="615.178,-179.5 615.178,-198.5 773.178,-198.5 773.178,-179.5 615.178,-179.5"/>
<text text-anchor="middle" x="694.178" y="-186.5" font-family="Helvetica,sans-Serif" font-size="10.00">gelfcpp/output/GelfSerializer.hpp</text>
</a>
</g>
</g>
<!-- Node1&#45;&gt;Node8 -->
<g id="edge7" class="edge"><title>Node1&#45;&gt;Node8</title>
<path fill="none" stroke="midnightblue" d="M1184.95,-243.384C1089.82,-233.036 896.377,-211.994 782.832,-199.643"/>
<polygon fill="midnightblue" stroke="midnightblue" points="783.095,-196.151 772.775,-198.549 782.338,-203.11 783.095,-196.151"/>
</g>
<!-- Node18 -->
<g id="node18" class="node"><title>Node18</title>
<polygon fill="white" stroke="#bfbfbf" points="1269.18,-179.5 1269.18,-198.5 1379.18,-198.5 1379.18,-179.5 1269.18,-179.5"/>
<text text-anchor="middle" x="1324.18" y="-186.5" font-family="Helvetica,sans-Serif" font-size="10.00">boost/asio/ip/udp.hpp</text>
</g>
<!-- Node1&#45;&gt;Node18 -->
<g id="edge20" class="edge"><title>Node1&#45;&gt;Node18</title>
<path fill="none" stroke="midnightblue" d="M1260.85,-235.399C1273.78,-226.129 1290.66,-214.025 1303.75,-204.647"/>
<polygon fill="midnightblue" stroke="midnightblue" points="1306.01,-207.329 1312.1,-198.658 1301.93,-201.639 1306.01,-207.329"/>
</g>
<!-- Node19 -->
<g id="node19" class="node"><title>Node19</title>
<polygon fill="white" stroke="#bfbfbf" points="1397.18,-179.5 1397.18,-198.5 1443.18,-198.5 1443.18,-179.5 1397.18,-179.5"/>
<text text-anchor="middle" x="1420.18" y="-186.5" font-family="Helvetica,sans-Serif" font-size="10.00">cstdint</text>
</g>
<!-- Node1&#45;&gt;Node19 -->
<g id="edge22" class="edge"><title>Node1&#45;&gt;Node19</title>
<path fill="none" stroke="midnightblue" d="M1283.6,-235.399C1315.32,-224.855 1358.07,-210.645 1387.24,-200.949"/>
<polygon fill="midnightblue" stroke="midnightblue" points="1388.56,-204.197 1396.95,-197.721 1386.36,-197.554 1388.56,-204.197"/>
</g>
<!-- Node3 -->
<g id="node3" class="node"><title>Node3</title>
<polygon fill="white" stroke="#bfbfbf" points="762.178,-0.5 762.178,-19.5 872.178,-19.5 872.178,-0.5 762.178,-0.5"/>
<text text-anchor="middle" x="817.178" y="-7.5" font-family="Helvetica,sans-Serif" font-size="10.00">rapidjson/document.h</text>
</g>
<!-- Node2&#45;&gt;Node3 -->
<g id="edge2" class="edge"><title>Node2&#45;&gt;Node3</title>
<path fill="none" stroke="midnightblue" d="M873.413,-56.324C863.412,-48.2631 848.291,-36.0765 836.247,-26.3695"/>
<polygon fill="midnightblue" stroke="midnightblue" points="838.121,-23.3841 828.138,-19.8339 833.728,-28.8343 838.121,-23.3841"/>
</g>
<!-- Node4 -->
<g id="node4" class="node"><title>Node4</title>
<polygon fill="white" stroke="#bfbfbf" points="890.178,-0.5 890.178,-19.5 968.178,-19.5 968.178,-0.5 890.178,-0.5"/>
<text text-anchor="middle" x="929.178" y="-7.5" font-family="Helvetica,sans-Serif" font-size="10.00">unordered_set</text>
</g>
<!-- Node2&#45;&gt;Node4 -->
<g id="edge3" class="edge"><title>Node2&#45;&gt;Node4</title>
<path fill="none" stroke="midnightblue" d="M891.609,-56.083C898.03,-48.3768 907.483,-37.0333 915.3,-27.6531"/>
<polygon fill="midnightblue" stroke="midnightblue" points="918.172,-29.674 921.885,-19.7511 912.795,-25.1927 918.172,-29.674"/>
</g>
<!-- Node2&#45;&gt;Node5 -->
<g id="edge4" class="edge"><title>Node2&#45;&gt;Node5</title>
<path fill="none" stroke="midnightblue" d="M820.126,-58.7792C700.338,-47.1451 446.59,-22.5004 358.816,-13.9756"/>
<polygon fill="midnightblue" stroke="midnightblue" points="359.012,-10.4783 348.721,-12.9952 358.335,-17.4455 359.012,-10.4783"/>
</g>
<!-- Node6 -->
<g id="node6" class="node"><title>Node6</title>
<polygon fill="white" stroke="#bfbfbf" points="698.178,-0.5 698.178,-19.5 744.178,-19.5 744.178,-0.5 698.178,-0.5"/>
<text text-anchor="middle" x="721.178" y="-7.5" font-family="Helvetica,sans-Serif" font-size="10.00">chrono</text>
</g>
<!-- Node2&#45;&gt;Node6 -->
<g id="edge5" class="edge"><title>Node2&#45;&gt;Node6</title>
<path fill="none" stroke="midnightblue" d="M858.35,-56.4435C830.122,-47.0919 784.826,-32.0859 754.075,-21.8984"/>
<polygon fill="midnightblue" stroke="midnightblue" points="754.843,-18.4658 744.249,-18.6433 752.641,-25.1106 754.843,-18.4658"/>
</g>
<!-- Node7 -->
<g id="node7" class="node"><title>Node7</title>
<polygon fill="white" stroke="#bfbfbf" points="986.678,-0.5 986.678,-19.5 1091.68,-19.5 1091.68,-0.5 986.678,-0.5"/>
<text text-anchor="middle" x="1039.18" y="-7.5" font-family="Helvetica,sans-Serif" font-size="10.00">bits/unordered_set.h</text>
</g>
<!-- Node2&#45;&gt;Node7 -->
<g id="edge6" class="edge"><title>Node2&#45;&gt;Node7</title>
<path fill="none" stroke="midnightblue" d="M908.738,-56.4435C934.7,-47.3986 975.846,-33.064 1004.97,-22.9158"/>
<polygon fill="midnightblue" stroke="midnightblue" points="1006.44,-26.1116 1014.73,-19.5164 1004.14,-19.5013 1006.44,-26.1116"/>
</g>
<!-- Node8&#45;&gt;Node2 -->
<g id="edge8" class="edge"><title>Node8&#45;&gt;Node2</title>
<path fill="none" stroke="midnightblue" d="M773.276,-186.453C904.872,-183.054 1157.08,-172.7 1184.18,-143 1193.46,-132.822 1193.17,-122.44 1184.18,-112 1155.65,-78.8681 1037.92,-69.7843 958.702,-67.4914"/>
<polygon fill="midnightblue" stroke="midnightblue" points="958.364,-63.9815 948.277,-67.222 958.183,-70.9792 958.364,-63.9815"/>
</g>
<!-- Node8&#45;&gt;Node6 -->
<g id="edge17" class="edge"><title>Node8&#45;&gt;Node6</title>
<path fill="none" stroke="midnightblue" d="M695.796,-179.388C697.475,-170.341 700.137,-155.692 702.178,-143 708.649,-102.759 715.205,-55.4433 718.669,-29.8114"/>
<polygon fill="midnightblue" stroke="midnightblue" points="722.169,-30.0406 720.031,-19.6637 715.232,-29.109 722.169,-30.0406"/>
</g>
<!-- Node9 -->
<g id="node9" class="node"><title>Node9</title>
<g id="a_node9"><a xlink:href="_document_accessor_8hpp.html" target="_top" xlink:title="gelfcpp/detail/DocumentAccessor.hpp">
<polygon fill="white" stroke="black" points="749.178,-118 749.178,-137 931.178,-137 931.178,-118 749.178,-118"/>
<text text-anchor="middle" x="840.178" y="-125" font-family="Helvetica,sans-Serif" font-size="10.00">gelfcpp/detail/DocumentAccessor.hpp</text>
</a>
</g>
</g>
<!-- Node8&#45;&gt;Node9 -->
<g id="edge9" class="edge"><title>Node8&#45;&gt;Node9</title>
<path fill="none" stroke="midnightblue" d="M715.096,-179.475C739.923,-169.357 781.521,-152.405 809.872,-140.851"/>
<polygon fill="midnightblue" stroke="midnightblue" points="811.359,-144.024 819.298,-137.009 808.717,-137.542 811.359,-144.024"/>
</g>
<!-- Node10 -->
<g id="node10" class="node"><title>Node10</title>
<polygon fill="white" stroke="#bfbfbf" points="949.178,-118 949.178,-137 1065.18,-137 1065.18,-118 949.178,-118"/>
<text text-anchor="middle" x="1007.18" y="-125" font-family="Helvetica,sans-Serif" font-size="10.00">rapidjson/stringbuffer.h</text>
</g>
<!-- Node8&#45;&gt;Node10 -->
<g id="edge11" class="edge"><title>Node8&#45;&gt;Node10</title>
<path fill="none" stroke="midnightblue" d="M743.274,-179.499C792.992,-170.777 872.055,-156.599 940.178,-143 946.084,-141.821 952.274,-140.541 958.404,-139.247"/>
<polygon fill="midnightblue" stroke="midnightblue" points="959.555,-142.58 968.604,-137.07 958.094,-135.735 959.555,-142.58"/>
</g>
<!-- Node11 -->
<g id="node11" class="node"><title>Node11</title>
<polygon fill="white" stroke="#bfbfbf" points="1083.68,-118 1083.68,-137 1174.68,-137 1174.68,-118 1083.68,-118"/>
<text text-anchor="middle" x="1129.18" y="-125" font-family="Helvetica,sans-Serif" font-size="10.00">rapidjson/writer.h</text>
</g>
<!-- Node8&#45;&gt;Node11 -->
<g id="edge12" class="edge"><title>Node8&#45;&gt;Node11</title>
<path fill="none" stroke="midnightblue" d="M773.269,-181.882C850.478,-175.147 971.059,-162.599 1074.18,-143 1079.32,-142.022 1084.69,-140.828 1089.98,-139.548"/>
<polygon fill="midnightblue" stroke="midnightblue" points="1091.12,-142.869 1099.95,-137.017 1089.4,-136.085 1091.12,-142.869"/>
</g>
<!-- Node12 -->
<g id="node12" class="node"><title>Node12</title>
<polygon fill="white" stroke="#bfbfbf" points="25.1778,-112.5 25.1778,-142.5 143.178,-142.5 143.178,-112.5 25.1778,-112.5"/>
<text text-anchor="start" x="33.1778" y="-130.5" font-family="Helvetica,sans-Serif" font-size="10.00">boost/iostreams/device</text>
<text text-anchor="middle" x="84.1778" y="-119.5" font-family="Helvetica,sans-Serif" font-size="10.00">/array.hpp</text>
</g>
<!-- Node8&#45;&gt;Node12 -->
<g id="edge13" class="edge"><title>Node8&#45;&gt;Node12</title>
<path fill="none" stroke="midnightblue" d="M614.827,-184.578C510.968,-179.392 323.161,-167.587 153.549,-143.08"/>
<polygon fill="midnightblue" stroke="midnightblue" points="153.837,-139.585 143.435,-141.6 152.823,-146.511 153.837,-139.585"/>
</g>
<!-- Node13 -->
<g id="node13" class="node"><title>Node13</title>
<polygon fill="white" stroke="#bfbfbf" points="161.178,-112.5 161.178,-142.5 269.178,-142.5 269.178,-112.5 161.178,-112.5"/>
<text text-anchor="start" x="169.178" y="-130.5" font-family="Helvetica,sans-Serif" font-size="10.00">boost/iostreams/filter</text>
<text text-anchor="middle" x="215.178" y="-119.5" font-family="Helvetica,sans-Serif" font-size="10.00">/gzip.hpp</text>
</g>
<!-- Node8&#45;&gt;Node13 -->
<g id="edge14" class="edge"><title>Node8&#45;&gt;Node13</title>
<path fill="none" stroke="midnightblue" d="M614.819,-182.228C533.04,-175.642 401.73,-163.294 279.317,-143.068"/>
<polygon fill="midnightblue" stroke="midnightblue" points="279.833,-139.606 269.392,-141.407 278.677,-146.51 279.833,-139.606"/>
</g>
<!-- Node14 -->
<g id="node14" class="node"><title>Node14</title>
<polygon fill="white" stroke="#bfbfbf" points="287.678,-118 287.678,-137 416.678,-137 416.678,-118 287.678,-118"/>
<text text-anchor="middle" x="352.178" y="-125" font-family="Helvetica,sans-Serif" font-size="10.00">boost/iostreams/copy.hpp</text>
</g>
<!-- Node8&#45;&gt;Node14 -->
<g id="edge15" class="edge"><title>Node8&#45;&gt;Node14</title>
<path fill="none" stroke="midnightblue" d="M640.249,-179.472C585.879,-170.758 499.585,-156.61 425.178,-143 418.431,-141.766 411.344,-140.42 404.348,-139.062"/>
<polygon fill="midnightblue" stroke="midnightblue" points="404.699,-135.565 394.213,-137.076 403.353,-142.434 404.699,-135.565"/>
</g>
<!-- Node15 -->
<g id="node15" class="node"><title>Node15</title>
<polygon fill="white" stroke="#bfbfbf" points="434.678,-112.5 434.678,-142.5 555.678,-142.5 555.678,-112.5 434.678,-112.5"/>
<text text-anchor="start" x="442.678" y="-130.5" font-family="Helvetica,sans-Serif" font-size="10.00">boost/iostreams/filtering</text>
<text text-anchor="middle" x="495.178" y="-119.5" font-family="Helvetica,sans-Serif" font-size="10.00">_streambuf.hpp</text>
</g>
<!-- Node8&#45;&gt;Node15 -->
<g id="edge16" class="edge"><title>Node8&#45;&gt;Node15</title>
<path fill="none" stroke="midnightblue" d="M665.666,-179.475C636.069,-170.626 588.988,-156.549 551.793,-145.428"/>
<polygon fill="midnightblue" stroke="midnightblue" points="552.662,-142.034 542.078,-142.523 550.656,-148.741 552.662,-142.034"/>
</g>
<!-- Node16 -->
<g id="node16" class="node"><title>Node16</title>
<polygon fill="white" stroke="#bfbfbf" points="573.678,-118 573.678,-137 622.678,-137 622.678,-118 573.678,-118"/>
<text text-anchor="middle" x="598.178" y="-125" font-family="Helvetica,sans-Serif" font-size="10.00">random</text>
</g>
<!-- Node8&#45;&gt;Node16 -->
<g id="edge18" class="edge"><title>Node8&#45;&gt;Node16</title>
<path fill="none" stroke="midnightblue" d="M680.423,-179.475C664.811,-169.799 639.114,-153.872 620.595,-142.394"/>
<polygon fill="midnightblue" stroke="midnightblue" points="622.25,-139.302 611.907,-137.009 618.563,-145.252 622.25,-139.302"/>
</g>
<!-- Node17 -->
<g id="node17" class="node"><title>Node17</title>
<polygon fill="white" stroke="#bfbfbf" points="641.178,-118 641.178,-137 693.178,-137 693.178,-118 641.178,-118"/>
<text text-anchor="middle" x="667.178" y="-125" font-family="Helvetica,sans-Serif" font-size="10.00">sstream</text>
</g>
<!-- Node8&#45;&gt;Node17 -->
<g id="edge19" class="edge"><title>Node8&#45;&gt;Node17</title>
<path fill="none" stroke="midnightblue" d="M690.309,-179.475C686.38,-170.815 680.178,-157.149 675.185,-146.145"/>
<polygon fill="midnightblue" stroke="midnightblue" points="678.359,-144.669 671.039,-137.009 671.984,-147.562 678.359,-144.669"/>
</g>
<!-- Node9&#45;&gt;Node2 -->
<g id="edge10" class="edge"><title>Node9&#45;&gt;Node2</title>
<path fill="none" stroke="midnightblue" d="M846.482,-117.975C853.082,-109.05 863.615,-94.8071 871.871,-83.6425"/>
<polygon fill="midnightblue" stroke="midnightblue" points="874.754,-85.6305 877.885,-75.5091 869.125,-81.4684 874.754,-85.6305"/>
</g>
</g>
</svg>
