<?xml version="1.0" encoding="UTF-8" standalone="no"?>
<!DOCTYPE svg PUBLIC "-//W3C//DTD SVG 1.1//EN"
 "http://www.w3.org/Graphics/SVG/1.1/DTD/svg11.dtd">
<!-- Generated by graphviz version 2.38.0 (20140413.2041)
 -->
<!-- Title: include/gelfcpp/GelfMessage.hpp Pages: 1 -->
<svg width="839pt" height="229pt"
 viewBox="0.00 0.00 839.00 229.00" xmlns="http://www.w3.org/2000/svg" xmlns:xlink="http://www.w3.org/1999/xlink">
<g id="graph0" class="graph" transform="scale(1 1) rotate(0) translate(4 225)">
<title>include/gelfcpp/GelfMessage.hpp</title>
<polygon fill="white" stroke="none" points="-4,4 -4,-225 835,-225 835,4 -4,4"/>
<!-- Node1 -->
<g id="node1" class="node"><title>Node1</title>
<polygon fill="#bfbfbf" stroke="black" points="404,-201.5 404,-220.5 565,-220.5 565,-201.5 404,-201.5"/>
<text text-anchor="middle" x="484.5" y="-208.5" font-family="Helvetica,sans-Serif" font-size="10.00">include/gelfcpp/GelfMessage.hpp</text>
</g>
<!-- Node2 -->
<g id="node2" class="node"><title>Node2</title>
<g id="a_node2"><a xlink:href="_host_8hpp.html" target="_top" xlink:title="include/gelfcpp/decorator\l/Host.hpp">
<polygon fill="white" stroke="black" points="0,-134.5 0,-164.5 125,-164.5 125,-134.5 0,-134.5"/>
<text text-anchor="start" x="8" y="-152.5" font-family="Helvetica,sans-Serif" font-size="10.00">include/gelfcpp/decorator</text>
<text text-anchor="middle" x="62.5" y="-141.5" font-family="Helvetica,sans-Serif" font-size="10.00">/Host.hpp</text>
</a>
</g>
</g>
<!-- Node1&#45;&gt;Node2 -->
<g id="edge1" class="edge"><title>Node1&#45;&gt;Node2</title>
<path fill="none" stroke="midnightblue" d="M395.498,-200.32C324.608,-192.186 222.94,-179.572 134.5,-165 131.48,-164.502 128.394,-163.971 125.281,-163.416"/>
<polygon fill="midnightblue" stroke="midnightblue" points="395.397,-203.831 405.729,-201.488 396.19,-196.876 395.397,-203.831"/>
</g>
<!-- Node3 -->
<g id="node3" class="node"><title>Node3</title>
<g id="a_node3"><a xlink:href="_static_decorator_set_8hpp.html" target="_top" xlink:title="include/gelfcpp/decorator\l/StaticDecoratorSet.hpp">
<polygon fill="white" stroke="black" points="143,-134.5 143,-164.5 268,-164.5 268,-134.5 143,-134.5"/>
<text text-anchor="start" x="151" y="-152.5" font-family="Helvetica,sans-Serif" font-size="10.00">include/gelfcpp/decorator</text>
<text text-anchor="middle" x="205.5" y="-141.5" font-family="Helvetica,sans-Serif" font-size="10.00">/StaticDecoratorSet.hpp</text>
</a>
</g>
</g>
<!-- Node1&#45;&gt;Node3 -->
<g id="edge2" class="edge"><title>Node1&#45;&gt;Node3</title>
<path fill="none" stroke="midnightblue" d="M434.663,-199.372C388.082,-189.438 318.355,-174.568 268.053,-163.84"/>
<polygon fill="midnightblue" stroke="midnightblue" points="434.016,-202.812 444.526,-201.475 435.476,-195.966 434.016,-202.812"/>
</g>
<!-- Node4 -->
<g id="node4" class="node"><title>Node4</title>
<g id="a_node4"><a xlink:href="_timestamp_8hpp.html" target="_top" xlink:title="include/gelfcpp/decorator\l/Timestamp.hpp">
<polygon fill="white" stroke="black" points="286,-134.5 286,-164.5 411,-164.5 411,-134.5 286,-134.5"/>
<text text-anchor="start" x="294" y="-152.5" font-family="Helvetica,sans-Serif" font-size="10.00">include/gelfcpp/decorator</text>
<text text-anchor="middle" x="348.5" y="-141.5" font-family="Helvetica,sans-Serif" font-size="10.00">/Timestamp.hpp</text>
</a>
</g>
</g>
<!-- Node1&#45;&gt;Node4 -->
<g id="edge3" class="edge"><title>Node1&#45;&gt;Node4</title>
<path fill="none" stroke="midnightblue" d="M455.838,-197.461C433.81,-187.823 403.386,-174.513 380.553,-164.523"/>
<polygon fill="midnightblue" stroke="midnightblue" points="454.45,-200.673 465.015,-201.475 457.256,-194.26 454.45,-200.673"/>
</g>
<!-- Node5 -->
<g id="node5" class="node"><title>Node5</title>
<g id="a_node5"><a xlink:href="_document_accessor_8hpp.html" target="_top" xlink:title="include/gelfcpp/detail\l/DocumentAccessor.hpp">
<polygon fill="white" stroke="black" points="468,-134.5 468,-164.5 593,-164.5 593,-134.5 468,-134.5"/>
<text text-anchor="start" x="476" y="-152.5" font-family="Helvetica,sans-Serif" font-size="10.00">include/gelfcpp/detail</text>
<text text-anchor="middle" x="530.5" y="-141.5" font-family="Helvetica,sans-Serif" font-size="10.00">/DocumentAccessor.hpp</text>
</a>
</g>
</g>
<!-- Node1&#45;&gt;Node5 -->
<g id="edge4" class="edge"><title>Node1&#45;&gt;Node5</title>
<path fill="none" stroke="midnightblue" d="M497.233,-193.53C504.278,-184.417 512.94,-173.214 519.659,-164.523"/>
<polygon fill="midnightblue" stroke="midnightblue" points="494.438,-191.423 491.091,-201.475 499.976,-195.704 494.438,-191.423"/>
</g>
<!-- Node6 -->
<g id="node6" class="node"><title>Node6</title>
<g id="a_node6"><a xlink:href="_gelf_j_s_o_n_output_8hpp.html" target="_top" xlink:title="include/gelfcpp/output\l/GelfJSONOutput.hpp">
<polygon fill="white" stroke="black" points="385,-67.5 385,-97.5 498,-97.5 498,-67.5 385,-67.5"/>
<text text-anchor="start" x="393" y="-85.5" font-family="Helvetica,sans-Serif" font-size="10.00">include/gelfcpp/output</text>
<text text-anchor="middle" x="441.5" y="-74.5" font-family="Helvetica,sans-Serif" font-size="10.00">/GelfJSONOutput.hpp</text>
</a>
</g>
</g>
<!-- Node1&#45;&gt;Node6 -->
<g id="edge10" class="edge"><title>Node1&#45;&gt;Node6</title>
<path fill="none" stroke="midnightblue" d="M473.417,-192.831C468.557,-184.668 463.142,-174.611 459.5,-165 450.873,-142.236 445.817,-114.251 443.361,-97.7006"/>
<polygon fill="midnightblue" stroke="midnightblue" points="470.486,-194.745 478.728,-201.403 476.436,-191.059 470.486,-194.745"/>
</g>
<!-- Node7 -->
<g id="node7" class="node"><title>Node7</title>
<g id="a_node7"><a xlink:href="_gelf_serializer_8hpp.html" target="_top" xlink:title="include/gelfcpp/output\l/GelfSerializer.hpp">
<polygon fill="white" stroke="black" points="519.5,-67.5 519.5,-97.5 631.5,-97.5 631.5,-67.5 519.5,-67.5"/>
<text text-anchor="start" x="527.5" y="-85.5" font-family="Helvetica,sans-Serif" font-size="10.00">include/gelfcpp/output</text>
<text text-anchor="middle" x="575.5" y="-74.5" font-family="Helvetica,sans-Serif" font-size="10.00">/GelfSerializer.hpp</text>
</a>
</g>
</g>
<!-- Node1&#45;&gt;Node7 -->
<g id="edge11" class="edge"><title>Node1&#45;&gt;Node7</title>
<path fill="none" stroke="midnightblue" d="M554.717,-198.331C573.292,-191.697 591.272,-181.298 602.5,-165 616.96,-144.01 600.055,-114.698 587.236,-97.5462"/>
<polygon fill="midnightblue" stroke="midnightblue" points="553.426,-195.07 544.981,-201.469 555.573,-201.733 553.426,-195.07"/>
</g>
<!-- Node8 -->
<g id="node8" class="node"><title>Node8</title>
<g id="a_node8"><a xlink:href="_gelf_u_d_p_output_8hpp.html" target="_top" xlink:title="include/gelfcpp/output\l/GelfUDPOutput.hpp">
<polygon fill="white" stroke="black" points="561.5,-0.5 561.5,-30.5 673.5,-30.5 673.5,-0.5 561.5,-0.5"/>
<text text-anchor="start" x="569.5" y="-18.5" font-family="Helvetica,sans-Serif" font-size="10.00">include/gelfcpp/output</text>
<text text-anchor="middle" x="617.5" y="-7.5" font-family="Helvetica,sans-Serif" font-size="10.00">/GelfUDPOutput.hpp</text>
</a>
</g>
</g>
<!-- Node1&#45;&gt;Node8 -->
<g id="edge12" class="edge"><title>Node1&#45;&gt;Node8</title>
<path fill="none" stroke="midnightblue" d="M556.77,-198.789C578.989,-192.182 601.928,-181.683 618.5,-165 649.959,-133.329 649.966,-110.624 640.5,-67 637.681,-54.0077 631.217,-40.348 625.858,-30.5158"/>
<polygon fill="midnightblue" stroke="midnightblue" points="555.696,-195.454 546.977,-201.473 557.546,-202.205 555.696,-195.454"/>
</g>
<!-- Node9 -->
<g id="node9" class="node"><title>Node9</title>
<g id="a_node9"><a xlink:href="_gelf_message_builder_8hpp.html" target="_top" xlink:title="include/gelfcpp/GelfMessage\lBuilder.hpp">
<polygon fill="white" stroke="black" points="688,-134.5 688,-164.5 831,-164.5 831,-134.5 688,-134.5"/>
<text text-anchor="start" x="696" y="-152.5" font-family="Helvetica,sans-Serif" font-size="10.00">include/gelfcpp/GelfMessage</text>
<text text-anchor="middle" x="759.5" y="-141.5" font-family="Helvetica,sans-Serif" font-size="10.00">Builder.hpp</text>
</a>
</g>
</g>
<!-- Node1&#45;&gt;Node9 -->
<g id="edge8" class="edge"><title>Node1&#45;&gt;Node9</title>
<path fill="none" stroke="midnightblue" d="M533.707,-199.353C578.653,-189.629 645.411,-175.185 694.688,-164.523"/>
<polygon fill="midnightblue" stroke="midnightblue" points="532.934,-195.939 523.901,-201.475 534.415,-202.781 532.934,-195.939"/>
</g>
<!-- Node5&#45;&gt;Node6 -->
<g id="edge5" class="edge"><title>Node5&#45;&gt;Node6</title>
<path fill="none" stroke="midnightblue" d="M503.048,-128.451C489.357,-118.452 473.129,-106.6 460.774,-97.5765"/>
<polygon fill="midnightblue" stroke="midnightblue" points="501.048,-131.324 511.188,-134.396 505.177,-125.672 501.048,-131.324"/>
</g>
<!-- Node5&#45;&gt;Node7 -->
<g id="edge6" class="edge"><title>Node5&#45;&gt;Node7</title>
<path fill="none" stroke="midnightblue" d="M545.968,-126.157C552.53,-116.679 559.979,-105.919 565.755,-97.5765"/>
<polygon fill="midnightblue" stroke="midnightblue" points="543.079,-124.182 540.264,-134.396 548.834,-128.166 543.079,-124.182"/>
</g>
<!-- Node7&#45;&gt;Node8 -->
<g id="edge7" class="edge"><title>Node7&#45;&gt;Node8</title>
<path fill="none" stroke="midnightblue" d="M590.124,-58.8669C596.203,-49.4594 603.069,-38.8334 608.404,-30.5765"/>
<polygon fill="midnightblue" stroke="midnightblue" points="587.101,-57.0973 584.613,-67.396 592.98,-60.8963 587.101,-57.0973"/>
</g>
<!-- Node10 -->
<g id="node10" class="node"><title>Node10</title>
<g id="a_node10"><a xlink:href="_gelf_message_stream_8hpp.html" target="_top" xlink:title="include/gelfcpp/GelfMessage\lStream.hpp">
<polygon fill="white" stroke="black" points="688,-67.5 688,-97.5 831,-97.5 831,-67.5 688,-67.5"/>
<text text-anchor="start" x="696" y="-85.5" font-family="Helvetica,sans-Serif" font-size="10.00">include/gelfcpp/GelfMessage</text>
<text text-anchor="middle" x="759.5" y="-74.5" font-family="Helvetica,sans-Serif" font-size="10.00">Stream.hpp</text>
</a>
</g>
</g>
<!-- Node9&#45;&gt;Node10 -->
<g id="edge9" class="edge"><title>Node9&#45;&gt;Node10</title>
<path fill="none" stroke="midnightblue" d="M759.5,-124.108C759.5,-115.154 759.5,-105.323 759.5,-97.5765"/>
<polygon fill="midnightblue" stroke="midnightblue" points="756,-124.396 759.5,-134.396 763,-124.396 756,-124.396"/>
</g>
</g>
</svg>
