<?xml version="1.0" encoding="UTF-8" standalone="no"?>
<!DOCTYPE svg PUBLIC "-//W3C//DTD SVG 1.1//EN"
 "http://www.w3.org/Graphics/SVG/1.1/DTD/svg11.dtd">
<!-- Generated by graphviz version 2.38.0 (20140413.2041)
 -->
<!-- Title: include/gelfcpp/output/GelfSerializer.hpp Pages: 1 -->
<svg width="1378pt" height="218pt"
 viewBox="0.00 0.00 1378.00 218.00" xmlns="http://www.w3.org/2000/svg" xmlns:xlink="http://www.w3.org/1999/xlink">
<g id="graph0" class="graph" transform="scale(1 1) rotate(0) translate(4 214)">
<title>include/gelfcpp/output/GelfSerializer.hpp</title>
<polygon fill="white" stroke="none" points="-4,4 -4,-214 1374,-214 1374,4 -4,4"/>
<!-- Node1 -->
<g id="node1" class="node"><title>Node1</title>
<polygon fill="#bfbfbf" stroke="black" points="705,-179.5 705,-209.5 817,-209.5 817,-179.5 705,-179.5"/>
<text text-anchor="start" x="713" y="-197.5" font-family="Helvetica,sans-Serif" font-size="10.00">include/gelfcpp/output</text>
<text text-anchor="middle" x="761" y="-186.5" font-family="Helvetica,sans-Serif" font-size="10.00">/GelfSerializer.hpp</text>
</g>
<!-- Node2 -->
<g id="node2" class="node"><title>Node2</title>
<g id="a_node2"><a xlink:href="_gelf_message_8hpp.html" target="_top" xlink:title="gelfcpp/GelfMessage.hpp">
<polygon fill="white" stroke="black" points="181,-56.5 181,-75.5 309,-75.5 309,-56.5 181,-56.5"/>
<text text-anchor="middle" x="245" y="-63.5" font-family="Helvetica,sans-Serif" font-size="10.00">gelfcpp/GelfMessage.hpp</text>
</a>
</g>
</g>
<!-- Node1&#45;&gt;Node2 -->
<g id="edge1" class="edge"><title>Node1&#45;&gt;Node2</title>
<path fill="none" stroke="midnightblue" d="M704.75,-192.536C571.226,-189.666 243.84,-178.993 211,-143 195.092,-125.565 213.309,-99.4529 228.591,-82.8255"/>
<polygon fill="midnightblue" stroke="midnightblue" points="231.243,-85.1184 235.695,-75.5043 226.219,-80.2437 231.243,-85.1184"/>
</g>
<!-- Node6 -->
<g id="node6" class="node"><title>Node6</title>
<polygon fill="white" stroke="#bfbfbf" points="407,-0.5 407,-19.5 453,-19.5 453,-0.5 407,-0.5"/>
<text text-anchor="middle" x="430" y="-7.5" font-family="Helvetica,sans-Serif" font-size="10.00">chrono</text>
</g>
<!-- Node1&#45;&gt;Node6 -->
<g id="edge15" class="edge"><title>Node1&#45;&gt;Node6</title>
<path fill="none" stroke="midnightblue" d="M704.984,-192.144C624.97,-188.969 483.757,-178.371 449,-143 419.334,-112.81 422.348,-58.4239 426.497,-29.7948"/>
<polygon fill="midnightblue" stroke="midnightblue" points="430.011,-29.9966 428.193,-19.5588 423.105,-28.8518 430.011,-29.9966"/>
</g>
<!-- Node8 -->
<g id="node8" class="node"><title>Node8</title>
<g id="a_node8"><a xlink:href="_document_accessor_8hpp.html" target="_top" xlink:title="gelfcpp/detail/DocumentAccessor.hpp">
<polygon fill="white" stroke="black" points="220,-118 220,-137 402,-137 402,-118 220,-118"/>
<text text-anchor="middle" x="311" y="-125" font-family="Helvetica,sans-Serif" font-size="10.00">gelfcpp/detail/DocumentAccessor.hpp</text>
</a>
</g>
</g>
<!-- Node1&#45;&gt;Node8 -->
<g id="edge7" class="edge"><title>Node1&#45;&gt;Node8</title>
<path fill="none" stroke="midnightblue" d="M704.917,-185.399C622.566,-173.504 469.07,-151.332 379.946,-138.459"/>
<polygon fill="midnightblue" stroke="midnightblue" points="380.334,-134.979 369.936,-137.013 379.333,-141.907 380.334,-134.979"/>
</g>
<!-- Node9 -->
<g id="node9" class="node"><title>Node9</title>
<polygon fill="white" stroke="#bfbfbf" points="458,-118 458,-137 574,-137 574,-118 458,-118"/>
<text text-anchor="middle" x="516" y="-125" font-family="Helvetica,sans-Serif" font-size="10.00">rapidjson/stringbuffer.h</text>
</g>
<!-- Node1&#45;&gt;Node9 -->
<g id="edge9" class="edge"><title>Node1&#45;&gt;Node9</title>
<path fill="none" stroke="midnightblue" d="M708.14,-179.476C663.176,-167.547 599.466,-150.644 557.942,-139.628"/>
<polygon fill="midnightblue" stroke="midnightblue" points="558.71,-136.21 548.146,-137.029 556.915,-142.976 558.71,-136.21"/>
</g>
<!-- Node10 -->
<g id="node10" class="node"><title>Node10</title>
<polygon fill="white" stroke="#bfbfbf" points="592.5,-118 592.5,-137 683.5,-137 683.5,-118 592.5,-118"/>
<text text-anchor="middle" x="638" y="-125" font-family="Helvetica,sans-Serif" font-size="10.00">rapidjson/writer.h</text>
</g>
<!-- Node1&#45;&gt;Node10 -->
<g id="edge10" class="edge"><title>Node1&#45;&gt;Node10</title>
<path fill="none" stroke="midnightblue" d="M734.311,-179.396C713.111,-168.193 683.683,-152.641 662.951,-141.685"/>
<polygon fill="midnightblue" stroke="midnightblue" points="664.575,-138.585 654.098,-137.007 661.304,-144.774 664.575,-138.585"/>
</g>
<!-- Node11 -->
<g id="node11" class="node"><title>Node11</title>
<polygon fill="white" stroke="#bfbfbf" points="702,-112.5 702,-142.5 820,-142.5 820,-112.5 702,-112.5"/>
<text text-anchor="start" x="710" y="-130.5" font-family="Helvetica,sans-Serif" font-size="10.00">boost/iostreams/device</text>
<text text-anchor="middle" x="761" y="-119.5" font-family="Helvetica,sans-Serif" font-size="10.00">/array.hpp</text>
</g>
<!-- Node1&#45;&gt;Node11 -->
<g id="edge11" class="edge"><title>Node1&#45;&gt;Node11</title>
<path fill="none" stroke="midnightblue" d="M761,-179.396C761,-171.645 761,-161.812 761,-152.86"/>
<polygon fill="midnightblue" stroke="midnightblue" points="764.5,-152.576 761,-142.577 757.5,-152.577 764.5,-152.576"/>
</g>
<!-- Node12 -->
<g id="node12" class="node"><title>Node12</title>
<polygon fill="white" stroke="#bfbfbf" points="838,-112.5 838,-142.5 946,-142.5 946,-112.5 838,-112.5"/>
<text text-anchor="start" x="846" y="-130.5" font-family="Helvetica,sans-Serif" font-size="10.00">boost/iostreams/filter</text>
<text text-anchor="middle" x="892" y="-119.5" font-family="Helvetica,sans-Serif" font-size="10.00">/gzip.hpp</text>
</g>
<!-- Node1&#45;&gt;Node12 -->
<g id="edge12" class="edge"><title>Node1&#45;&gt;Node12</title>
<path fill="none" stroke="midnightblue" d="M789.425,-179.396C808.48,-169.941 833.776,-157.39 854.48,-147.117"/>
<polygon fill="midnightblue" stroke="midnightblue" points="856.228,-150.157 863.63,-142.577 853.117,-143.886 856.228,-150.157"/>
</g>
<!-- Node13 -->
<g id="node13" class="node"><title>Node13</title>
<polygon fill="white" stroke="#bfbfbf" points="964.5,-118 964.5,-137 1093.5,-137 1093.5,-118 964.5,-118"/>
<text text-anchor="middle" x="1029" y="-125" font-family="Helvetica,sans-Serif" font-size="10.00">boost/iostreams/copy.hpp</text>
</g>
<!-- Node1&#45;&gt;Node13 -->
<g id="edge13" class="edge"><title>Node1&#45;&gt;Node13</title>
<path fill="none" stroke="midnightblue" d="M817.182,-179.874C866.697,-167.864 937.908,-150.593 983.816,-139.459"/>
<polygon fill="midnightblue" stroke="midnightblue" points="984.884,-142.801 993.778,-137.043 983.234,-135.998 984.884,-142.801"/>
</g>
<!-- Node14 -->
<g id="node14" class="node"><title>Node14</title>
<polygon fill="white" stroke="#bfbfbf" points="1111.5,-112.5 1111.5,-142.5 1232.5,-142.5 1232.5,-112.5 1111.5,-112.5"/>
<text text-anchor="start" x="1119.5" y="-130.5" font-family="Helvetica,sans-Serif" font-size="10.00">boost/iostreams/filtering</text>
<text text-anchor="middle" x="1172" y="-119.5" font-family="Helvetica,sans-Serif" font-size="10.00">_streambuf.hpp</text>
</g>
<!-- Node1&#45;&gt;Node14 -->
<g id="edge14" class="edge"><title>Node1&#45;&gt;Node14</title>
<path fill="none" stroke="midnightblue" d="M817.151,-186.27C882.993,-177.555 995.629,-161.909 1101.56,-143.2"/>
<polygon fill="midnightblue" stroke="midnightblue" points="1102.23,-146.636 1111.46,-141.439 1101,-139.744 1102.23,-146.636"/>
</g>
<!-- Node15 -->
<g id="node15" class="node"><title>Node15</title>
<polygon fill="white" stroke="#bfbfbf" points="1250.5,-118 1250.5,-137 1299.5,-137 1299.5,-118 1250.5,-118"/>
<text text-anchor="middle" x="1275" y="-125" font-family="Helvetica,sans-Serif" font-size="10.00">random</text>
</g>
<!-- Node1&#45;&gt;Node15 -->
<g id="edge16" class="edge"><title>Node1&#45;&gt;Node15</title>
<path fill="none" stroke="midnightblue" d="M817.194,-193.185C908.022,-191.442 1092.06,-182.776 1242,-143 1244.3,-142.391 1246.64,-141.643 1248.96,-140.812"/>
<polygon fill="midnightblue" stroke="midnightblue" points="1250.28,-144.055 1258.24,-137.062 1247.65,-137.566 1250.28,-144.055"/>
</g>
<!-- Node16 -->
<g id="node16" class="node"><title>Node16</title>
<polygon fill="white" stroke="#bfbfbf" points="1318,-118 1318,-137 1370,-137 1370,-118 1318,-118"/>
<text text-anchor="middle" x="1344" y="-125" font-family="Helvetica,sans-Serif" font-size="10.00">sstream</text>
</g>
<!-- Node1&#45;&gt;Node16 -->
<g id="edge17" class="edge"><title>Node1&#45;&gt;Node16</title>
<path fill="none" stroke="midnightblue" d="M817.143,-193.842C917.411,-193.243 1133.24,-186.446 1309,-143 1311.51,-142.379 1314.08,-141.605 1316.63,-140.741"/>
<polygon fill="midnightblue" stroke="midnightblue" points="1318.09,-143.93 1326.18,-137.092 1315.59,-137.391 1318.09,-143.93"/>
</g>
<!-- Node3 -->
<g id="node3" class="node"><title>Node3</title>
<polygon fill="white" stroke="#bfbfbf" points="0,-0.5 0,-19.5 110,-19.5 110,-0.5 0,-0.5"/>
<text text-anchor="middle" x="55" y="-7.5" font-family="Helvetica,sans-Serif" font-size="10.00">rapidjson/document.h</text>
</g>
<!-- Node2&#45;&gt;Node3 -->
<g id="edge2" class="edge"><title>Node2&#45;&gt;Node3</title>
<path fill="none" stroke="midnightblue" d="M214.894,-56.4435C182.374,-47.2011 130.421,-32.4356 94.6087,-22.2572"/>
<polygon fill="midnightblue" stroke="midnightblue" points="95.5411,-18.8837 84.9652,-19.5164 93.6274,-25.617 95.5411,-18.8837"/>
</g>
<!-- Node4 -->
<g id="node4" class="node"><title>Node4</title>
<polygon fill="white" stroke="#bfbfbf" points="128,-0.5 128,-19.5 206,-19.5 206,-0.5 128,-0.5"/>
<text text-anchor="middle" x="167" y="-7.5" font-family="Helvetica,sans-Serif" font-size="10.00">unordered_set</text>
</g>
<!-- Node2&#45;&gt;Node4 -->
<g id="edge3" class="edge"><title>Node2&#45;&gt;Node4</title>
<path fill="none" stroke="midnightblue" d="M232.468,-56.324C220.414,-47.979 201.973,-35.2122 187.731,-25.3524"/>
<polygon fill="midnightblue" stroke="midnightblue" points="189.715,-22.469 179.501,-19.6545 185.731,-28.2243 189.715,-22.469"/>
</g>
<!-- Node5 -->
<g id="node5" class="node"><title>Node5</title>
<polygon fill="white" stroke="#bfbfbf" points="224.5,-0.5 224.5,-19.5 265.5,-19.5 265.5,-0.5 224.5,-0.5"/>
<text text-anchor="middle" x="245" y="-7.5" font-family="Helvetica,sans-Serif" font-size="10.00">string</text>
</g>
<!-- Node2&#45;&gt;Node5 -->
<g id="edge4" class="edge"><title>Node2&#45;&gt;Node5</title>
<path fill="none" stroke="midnightblue" d="M245,-56.083C245,-49.0059 245,-38.8611 245,-29.9865"/>
<polygon fill="midnightblue" stroke="midnightblue" points="248.5,-29.751 245,-19.7511 241.5,-29.7511 248.5,-29.751"/>
</g>
<!-- Node2&#45;&gt;Node6 -->
<g id="edge5" class="edge"><title>Node2&#45;&gt;Node6</title>
<path fill="none" stroke="midnightblue" d="M274.314,-56.4435C307.79,-46.6722 362.415,-30.7275 397.259,-20.5567"/>
<polygon fill="midnightblue" stroke="midnightblue" points="398.342,-23.8869 406.96,-17.7251 396.38,-17.1673 398.342,-23.8869"/>
</g>
<!-- Node7 -->
<g id="node7" class="node"><title>Node7</title>
<polygon fill="white" stroke="#bfbfbf" points="283.5,-0.5 283.5,-19.5 388.5,-19.5 388.5,-0.5 283.5,-0.5"/>
<text text-anchor="middle" x="336" y="-7.5" font-family="Helvetica,sans-Serif" font-size="10.00">bits/unordered_set.h</text>
</g>
<!-- Node2&#45;&gt;Node7 -->
<g id="edge6" class="edge"><title>Node2&#45;&gt;Node7</title>
<path fill="none" stroke="midnightblue" d="M259.621,-56.324C273.949,-47.8215 296.013,-34.7288 312.749,-24.7975"/>
<polygon fill="midnightblue" stroke="midnightblue" points="314.602,-27.7677 321.416,-19.6545 311.03,-21.7478 314.602,-27.7677"/>
</g>
<!-- Node8&#45;&gt;Node2 -->
<g id="edge8" class="edge"><title>Node8&#45;&gt;Node2</title>
<path fill="none" stroke="midnightblue" d="M301.544,-117.975C291.252,-108.697 274.584,-93.6706 262.006,-82.331"/>
<polygon fill="midnightblue" stroke="midnightblue" points="264.21,-79.6054 254.439,-75.5091 259.522,-84.8046 264.21,-79.6054"/>
</g>
</g>
</svg>
