<?xml version="1.0" encoding="UTF-8" standalone="no"?>
<!DOCTYPE svg PUBLIC "-//W3C//DTD SVG 1.1//EN"
 "http://www.w3.org/Graphics/SVG/1.1/DTD/svg11.dtd">
<!-- Generated by graphviz version 2.38.0 (20140413.2041)
 -->
<!-- Title: include/gelfcpp/decorator/Host.hpp Pages: 1 -->
<svg width="462pt" height="162pt"
 viewBox="0.00 0.00 461.50 162.00" xmlns="http://www.w3.org/2000/svg" xmlns:xlink="http://www.w3.org/1999/xlink">
<g id="graph0" class="graph" transform="scale(1 1) rotate(0) translate(4 158)">
<title>include/gelfcpp/decorator/Host.hpp</title>
<polygon fill="white" stroke="none" points="-4,4 -4,-158 457.5,-158 457.5,4 -4,4"/>
<!-- Node1 -->
<g id="node1" class="node"><title>Node1</title>
<polygon fill="#bfbfbf" stroke="black" points="246.5,-123.5 246.5,-153.5 371.5,-153.5 371.5,-123.5 246.5,-123.5"/>
<text text-anchor="start" x="254.5" y="-141.5" font-family="Helvetica,sans-Serif" font-size="10.00">include/gelfcpp/decorator</text>
<text text-anchor="middle" x="309" y="-130.5" font-family="Helvetica,sans-Serif" font-size="10.00">/Host.hpp</text>
</g>
<!-- Node2 -->
<g id="node2" class="node"><title>Node2</title>
<g id="a_node2"><a xlink:href="_gelf_message_8hpp.html" target="_top" xlink:title="gelfcpp/GelfMessage.hpp">
<polygon fill="white" stroke="black" points="181,-62 181,-81 309,-81 309,-62 181,-62"/>
<text text-anchor="middle" x="245" y="-69" font-family="Helvetica,sans-Serif" font-size="10.00">gelfcpp/GelfMessage.hpp</text>
</a>
</g>
</g>
<!-- Node1&#45;&gt;Node2 -->
<g id="edge1" class="edge"><title>Node1&#45;&gt;Node2</title>
<path fill="none" stroke="midnightblue" d="M295.113,-123.396C285.035,-113.161 271.384,-99.2959 260.874,-88.622"/>
<polygon fill="midnightblue" stroke="midnightblue" points="263.071,-85.8646 253.561,-81.1945 258.083,-90.7759 263.071,-85.8646"/>
</g>
<!-- Node8 -->
<g id="node8" class="node"><title>Node8</title>
<polygon fill="white" stroke="#bfbfbf" points="327,-56.5 327,-86.5 421,-86.5 421,-56.5 327,-56.5"/>
<text text-anchor="start" x="335" y="-74.5" font-family="Helvetica,sans-Serif" font-size="10.00">boost/asio/ip/host</text>
<text text-anchor="middle" x="374" y="-63.5" font-family="Helvetica,sans-Serif" font-size="10.00">_name.hpp</text>
</g>
<!-- Node1&#45;&gt;Node8 -->
<g id="edge7" class="edge"><title>Node1&#45;&gt;Node8</title>
<path fill="none" stroke="midnightblue" d="M323.104,-123.396C331.792,-114.708 343.095,-103.405 352.842,-93.6576"/>
<polygon fill="midnightblue" stroke="midnightblue" points="355.327,-96.1225 359.923,-86.5765 350.378,-91.1727 355.327,-96.1225"/>
</g>
<!-- Node3 -->
<g id="node3" class="node"><title>Node3</title>
<polygon fill="white" stroke="#bfbfbf" points="0,-0.5 0,-19.5 110,-19.5 110,-0.5 0,-0.5"/>
<text text-anchor="middle" x="55" y="-7.5" font-family="Helvetica,sans-Serif" font-size="10.00">rapidjson/document.h</text>
</g>
<!-- Node2&#45;&gt;Node3 -->
<g id="edge2" class="edge"><title>Node2&#45;&gt;Node3</title>
<path fill="none" stroke="midnightblue" d="M217.778,-61.9751C184.763,-51.6362 128.96,-34.1611 92.0474,-22.6017"/>
<polygon fill="midnightblue" stroke="midnightblue" points="92.7609,-19.1576 82.1719,-19.5091 90.6689,-25.8377 92.7609,-19.1576"/>
</g>
<!-- Node4 -->
<g id="node4" class="node"><title>Node4</title>
<polygon fill="white" stroke="#bfbfbf" points="128,-0.5 128,-19.5 206,-19.5 206,-0.5 128,-0.5"/>
<text text-anchor="middle" x="167" y="-7.5" font-family="Helvetica,sans-Serif" font-size="10.00">unordered_set</text>
</g>
<!-- Node2&#45;&gt;Node4 -->
<g id="edge3" class="edge"><title>Node2&#45;&gt;Node4</title>
<path fill="none" stroke="midnightblue" d="M233.825,-61.9751C221.429,-52.5199 201.21,-37.0961 186.254,-25.6871"/>
<polygon fill="midnightblue" stroke="midnightblue" points="188.228,-22.7914 178.155,-19.5091 183.983,-28.357 188.228,-22.7914"/>
</g>
<!-- Node5 -->
<g id="node5" class="node"><title>Node5</title>
<polygon fill="white" stroke="#bfbfbf" points="224.5,-0.5 224.5,-19.5 265.5,-19.5 265.5,-0.5 224.5,-0.5"/>
<text text-anchor="middle" x="245" y="-7.5" font-family="Helvetica,sans-Serif" font-size="10.00">string</text>
</g>
<!-- Node2&#45;&gt;Node5 -->
<g id="edge4" class="edge"><title>Node2&#45;&gt;Node5</title>
<path fill="none" stroke="midnightblue" d="M245,-61.9751C245,-53.5803 245,-40.4806 245,-29.6631"/>
<polygon fill="midnightblue" stroke="midnightblue" points="248.5,-29.5091 245,-19.5091 241.5,-29.5091 248.5,-29.5091"/>
</g>
<!-- Node6 -->
<g id="node6" class="node"><title>Node6</title>
<polygon fill="white" stroke="#bfbfbf" points="284,-0.5 284,-19.5 330,-19.5 330,-0.5 284,-0.5"/>
<text text-anchor="middle" x="307" y="-7.5" font-family="Helvetica,sans-Serif" font-size="10.00">chrono</text>
</g>
<!-- Node2&#45;&gt;Node6 -->
<g id="edge5" class="edge"><title>Node2&#45;&gt;Node6</title>
<path fill="none" stroke="midnightblue" d="M253.883,-61.9751C263.459,-52.785 278.911,-37.9563 290.686,-26.656"/>
<polygon fill="midnightblue" stroke="midnightblue" points="293.342,-28.9585 298.133,-19.5091 288.495,-23.908 293.342,-28.9585"/>
</g>
<!-- Node7 -->
<g id="node7" class="node"><title>Node7</title>
<polygon fill="white" stroke="#bfbfbf" points="348.5,-0.5 348.5,-19.5 453.5,-19.5 453.5,-0.5 348.5,-0.5"/>
<text text-anchor="middle" x="401" y="-7.5" font-family="Helvetica,sans-Serif" font-size="10.00">bits/unordered_set.h</text>
</g>
<!-- Node2&#45;&gt;Node7 -->
<g id="edge6" class="edge"><title>Node2&#45;&gt;Node7</title>
<path fill="none" stroke="midnightblue" d="M267.351,-61.9751C293.995,-51.8129 338.714,-34.7564 369.014,-23.1996"/>
<polygon fill="midnightblue" stroke="midnightblue" points="370.594,-26.343 378.69,-19.5091 368.1,-19.8026 370.594,-26.343"/>
</g>
</g>
</svg>
