<?xml version="1.0" encoding="UTF-8" standalone="no"?>
<!DOCTYPE svg PUBLIC "-//W3C//DTD SVG 1.1//EN"
 "http://www.w3.org/Graphics/SVG/1.1/DTD/svg11.dtd">
<!-- Generated by graphviz version 2.38.0 (20140413.2041)
 -->
<!-- Title: include/gelfcpp/decorator/StaticDecoratorSet.hpp Pages: 1 -->
<svg width="462pt" height="151pt"
 viewBox="0.00 0.00 461.50 151.00" xmlns="http://www.w3.org/2000/svg" xmlns:xlink="http://www.w3.org/1999/xlink">
<g id="graph0" class="graph" transform="scale(1 1) rotate(0) translate(4 147)">
<title>include/gelfcpp/decorator/StaticDecoratorSet.hpp</title>
<polygon fill="white" stroke="none" points="-4,4 -4,-147 457.5,-147 457.5,4 -4,4"/>
<!-- Node1 -->
<g id="node1" class="node"><title>Node1</title>
<polygon fill="#bfbfbf" stroke="black" points="232.5,-112.5 232.5,-142.5 357.5,-142.5 357.5,-112.5 232.5,-112.5"/>
<text text-anchor="start" x="240.5" y="-130.5" font-family="Helvetica,sans-Serif" font-size="10.00">include/gelfcpp/decorator</text>
<text text-anchor="middle" x="295" y="-119.5" font-family="Helvetica,sans-Serif" font-size="10.00">/StaticDecoratorSet.hpp</text>
</g>
<!-- Node2 -->
<g id="node2" class="node"><title>Node2</title>
<g id="a_node2"><a xlink:href="_gelf_message_8hpp.html" target="_top" xlink:title="gelfcpp/GelfMessage.hpp">
<polygon fill="white" stroke="black" points="181,-56.5 181,-75.5 309,-75.5 309,-56.5 181,-56.5"/>
<text text-anchor="middle" x="245" y="-63.5" font-family="Helvetica,sans-Serif" font-size="10.00">gelfcpp/GelfMessage.hpp</text>
</a>
</g>
</g>
<!-- Node1&#45;&gt;Node2 -->
<g id="edge1" class="edge"><title>Node1&#45;&gt;Node2</title>
<path fill="none" stroke="midnightblue" d="M283.151,-112.399C275.885,-103.753 266.548,-92.642 258.929,-83.576"/>
<polygon fill="midnightblue" stroke="midnightblue" points="261.388,-81.0619 252.275,-75.6578 256.029,-85.5653 261.388,-81.0619"/>
</g>
<!-- Node8 -->
<g id="node8" class="node"><title>Node8</title>
<polygon fill="white" stroke="#bfbfbf" points="327,-56.5 327,-75.5 365,-75.5 365,-56.5 327,-56.5"/>
<text text-anchor="middle" x="346" y="-63.5" font-family="Helvetica,sans-Serif" font-size="10.00">tuple</text>
</g>
<!-- Node1&#45;&gt;Node8 -->
<g id="edge7" class="edge"><title>Node1&#45;&gt;Node8</title>
<path fill="none" stroke="midnightblue" d="M307.086,-112.399C314.574,-103.664 324.218,-92.4126 332.032,-83.2962"/>
<polygon fill="midnightblue" stroke="midnightblue" points="334.729,-85.5281 338.579,-75.6578 329.414,-80.9726 334.729,-85.5281"/>
</g>
<!-- Node3 -->
<g id="node3" class="node"><title>Node3</title>
<polygon fill="white" stroke="#bfbfbf" points="0,-0.5 0,-19.5 110,-19.5 110,-0.5 0,-0.5"/>
<text text-anchor="middle" x="55" y="-7.5" font-family="Helvetica,sans-Serif" font-size="10.00">rapidjson/document.h</text>
</g>
<!-- Node2&#45;&gt;Node3 -->
<g id="edge2" class="edge"><title>Node2&#45;&gt;Node3</title>
<path fill="none" stroke="midnightblue" d="M214.894,-56.4435C182.374,-47.2011 130.421,-32.4356 94.6087,-22.2572"/>
<polygon fill="midnightblue" stroke="midnightblue" points="95.5411,-18.8837 84.9652,-19.5164 93.6274,-25.617 95.5411,-18.8837"/>
</g>
<!-- Node4 -->
<g id="node4" class="node"><title>Node4</title>
<polygon fill="white" stroke="#bfbfbf" points="128,-0.5 128,-19.5 206,-19.5 206,-0.5 128,-0.5"/>
<text text-anchor="middle" x="167" y="-7.5" font-family="Helvetica,sans-Serif" font-size="10.00">unordered_set</text>
</g>
<!-- Node2&#45;&gt;Node4 -->
<g id="edge3" class="edge"><title>Node2&#45;&gt;Node4</title>
<path fill="none" stroke="midnightblue" d="M232.468,-56.324C220.414,-47.979 201.973,-35.2122 187.731,-25.3524"/>
<polygon fill="midnightblue" stroke="midnightblue" points="189.715,-22.469 179.501,-19.6545 185.731,-28.2243 189.715,-22.469"/>
</g>
<!-- Node5 -->
<g id="node5" class="node"><title>Node5</title>
<polygon fill="white" stroke="#bfbfbf" points="224.5,-0.5 224.5,-19.5 265.5,-19.5 265.5,-0.5 224.5,-0.5"/>
<text text-anchor="middle" x="245" y="-7.5" font-family="Helvetica,sans-Serif" font-size="10.00">string</text>
</g>
<!-- Node2&#45;&gt;Node5 -->
<g id="edge4" class="edge"><title>Node2&#45;&gt;Node5</title>
<path fill="none" stroke="midnightblue" d="M245,-56.083C245,-49.0059 245,-38.8611 245,-29.9865"/>
<polygon fill="midnightblue" stroke="midnightblue" points="248.5,-29.751 245,-19.7511 241.5,-29.7511 248.5,-29.751"/>
</g>
<!-- Node6 -->
<g id="node6" class="node"><title>Node6</title>
<polygon fill="white" stroke="#bfbfbf" points="284,-0.5 284,-19.5 330,-19.5 330,-0.5 284,-0.5"/>
<text text-anchor="middle" x="307" y="-7.5" font-family="Helvetica,sans-Serif" font-size="10.00">chrono</text>
</g>
<!-- Node2&#45;&gt;Node6 -->
<g id="edge5" class="edge"><title>Node2&#45;&gt;Node6</title>
<path fill="none" stroke="midnightblue" d="M254.961,-56.324C264.127,-48.3414 277.937,-36.3128 289.028,-26.6529"/>
<polygon fill="midnightblue" stroke="midnightblue" points="291.615,-29.041 296.857,-19.8339 287.018,-23.7624 291.615,-29.041"/>
</g>
<!-- Node7 -->
<g id="node7" class="node"><title>Node7</title>
<polygon fill="white" stroke="#bfbfbf" points="348.5,-0.5 348.5,-19.5 453.5,-19.5 453.5,-0.5 348.5,-0.5"/>
<text text-anchor="middle" x="401" y="-7.5" font-family="Helvetica,sans-Serif" font-size="10.00">bits/unordered_set.h</text>
</g>
<!-- Node2&#45;&gt;Node7 -->
<g id="edge6" class="edge"><title>Node2&#45;&gt;Node7</title>
<path fill="none" stroke="midnightblue" d="M269.719,-56.4435C295.848,-47.3986 337.259,-33.064 366.576,-22.9158"/>
<polygon fill="midnightblue" stroke="midnightblue" points="368.092,-26.0951 376.397,-19.5164 365.802,-19.4801 368.092,-26.0951"/>
</g>
</g>
</svg>
