<?xml version="1.0" encoding="UTF-8" standalone="no"?>
<!DOCTYPE svg PUBLIC "-//W3C//DTD SVG 1.1//EN"
 "http://www.w3.org/Graphics/SVG/1.1/DTD/svg11.dtd">
<!-- Generated by graphviz version 2.38.0 (20140413.2041)
 -->
<!-- Title: include/gelfcpp Pages: 1 -->
<svg width="258pt" height="183pt"
 viewBox="0.00 0.00 258.00 183.00" xmlns="http://www.w3.org/2000/svg" xmlns:xlink="http://www.w3.org/1999/xlink">
<g id="graph0" class="graph" transform="scale(1 1) rotate(0) translate(4 179)">
<title>include/gelfcpp</title>
<polygon fill="white" stroke="none" points="-4,4 -4,-179 254,-179 254,4 -4,4"/>
<g id="clust1" class="cluster"><title>clusterdir_d44c64559bbebec7f509842c48db8b23</title>
<g id="a_clust1"><a xlink:href="dir_d44c64559bbebec7f509842c48db8b23.html" target="_top" xlink:title="include">
<polygon fill="#ddddee" stroke="black" points="8,-8 8,-167 242,-167 242,-8 8,-8"/>
<text text-anchor="middle" x="125" y="-155" font-family="Helvetica,sans-Serif" font-size="10.00">include</text>
</a>
</g>
</g>
<g id="clust2" class="cluster"><title>clusterdir_09d28f32a6d54aae4dececafdd8c6b91</title>
<g id="a_clust2"><a xlink:href="dir_09d28f32a6d54aae4dececafdd8c6b91.html" target="_top">
<polygon fill="#eeeeff" stroke="black" points="16,-16 16,-140 234,-140 234,-16 16,-16"/>
</a>
</g>
</g>
<!-- dir_09d28f32a6d54aae4dececafdd8c6b91 -->
<g id="node1" class="node"><title>dir_09d28f32a6d54aae4dececafdd8c6b91</title>
<text text-anchor="middle" x="199" y="-111.5" font-family="Helvetica,sans-Serif" font-size="10.00">gelfcpp</text>
</g>
<!-- dir_898c46bb603318d7f0b5ff85b23cb549 -->
<g id="node2" class="node"><title>dir_898c46bb603318d7f0b5ff85b23cb549</title>
<g id="a_node2"><a xlink:href="dir_898c46bb603318d7f0b5ff85b23cb549.html" target="_top" xlink:title="decorator">
<polygon fill="white" stroke="black" points="153.5,-132 96.5,-132 96.5,-96 153.5,-96 153.5,-132"/>
<text text-anchor="middle" x="125" y="-111.5" font-family="Helvetica,sans-Serif" font-size="10.00">decorator</text>
</a>
</g>
</g>
<!-- dir_7ca97f1495b66b9d43149b077a6f3025 -->
<g id="node3" class="node"><title>dir_7ca97f1495b66b9d43149b077a6f3025</title>
<g id="a_node3"><a xlink:href="dir_7ca97f1495b66b9d43149b077a6f3025.html" target="_top" xlink:title="detail">
<polygon fill="white" stroke="black" points="78,-60 24,-60 24,-24 78,-24 78,-60"/>
<text text-anchor="middle" x="51" y="-39.5" font-family="Helvetica,sans-Serif" font-size="10.00">detail</text>
</a>
</g>
</g>
<!-- dir_956a57829be52246f9fc203fde3fcc8b -->
<g id="node4" class="node"><title>dir_956a57829be52246f9fc203fde3fcc8b</title>
<g id="a_node4"><a xlink:href="dir_956a57829be52246f9fc203fde3fcc8b.html" target="_top" xlink:title="output">
<polygon fill="white" stroke="black" points="78,-132 24,-132 24,-96 78,-96 78,-132"/>
<text text-anchor="middle" x="51" y="-111.5" font-family="Helvetica,sans-Serif" font-size="10.00">output</text>
</a>
</g>
</g>
<!-- dir_956a57829be52246f9fc203fde3fcc8b&#45;&gt;dir_7ca97f1495b66b9d43149b077a6f3025 -->
<g id="edge1" class="edge"><title>dir_956a57829be52246f9fc203fde3fcc8b&#45;&gt;dir_7ca97f1495b66b9d43149b077a6f3025</title>
<path fill="none" stroke="black" d="M51,-95.6966C51,-87.9827 51,-78.7125 51,-70.1124"/>
<polygon fill="black" stroke="black" points="54.5001,-70.1043 51,-60.1043 47.5001,-70.1044 54.5001,-70.1043"/>
<g id="a_edge1&#45;headlabel"><a xlink:href="dir_000005_000004.html" target="_top" xlink:title="2">
<text text-anchor="middle" x="57.3393" y="-71.199" font-family="Helvetica,sans-Serif" font-size="10.00">2</text>
</a>
</g>
</g>
</g>
</svg>
